<?xml version="1.0" standalone="no"?>
<!DOCTYPE svg PUBLIC "-//W3C//DTD SVG 20010904//EN"
 "http://www.w3.org/TR/2001/REC-SVG-20010904/DTD/svg10.dtd">
<svg version="1.0" xmlns="http://www.w3.org/2000/svg"
 width="1024.000000pt" height="872.000000pt" viewBox="0 0 1024.000000 872.000000"
 preserveAspectRatio="xMidYMid meet">
<metadata>
Created by potrace 1.16, written by Peter Selinger 2001-2019
</metadata>
<g transform="translate(0.000000,872.000000) scale(0.100000,-0.100000)"
fill="#003000" stroke="none">
<path d="M4100 7784 c0 -7 190 -302 366 -569 69 -104 207 -314 306 -465 99
-151 259 -394 355 -540 229 -347 430 -654 688 -1049 116 -177 280 -428 365
-559 86 -130 176 -270 200 -309 25 -40 48 -73 51 -73 4 0 21 22 38 48 49 76
160 178 232 212 102 48 177 37 256 -39 48 -46 66 -87 60 -138 -5 -50 -95 -249
-115 -258 -19 -7 -69 21 -89 52 -31 47 -22 117 31 228 25 54 46 102 46 107 0
14 -109 -73 -162 -130 -59 -63 -118 -154 -148 -226 l-22 -55 82 -126 c45 -69
87 -125 93 -125 5 0 40 17 76 37 95 53 174 136 215 226 139 304 405 781 527
945 49 65 82 71 105 17 32 -77 10 -148 -111 -352 -47 -80 -83 -148 -81 -151 3
-2 27 6 53 19 69 34 152 33 188 -1 43 -40 75 -112 75 -170 0 -69 -27 -118 -97
-174 -50 -40 -175 -109 -236 -130 -17 -5 -18 -13 -12 -59 16 -116 72 -207 129
-207 57 0 154 97 228 228 32 56 59 67 79 31 26 -50 -23 -160 -108 -240 -72
-68 -147 -102 -227 -101 -173 0 -286 145 -286 369 0 29 -3 53 -7 53 -8 0 -102
-190 -164 -332 -19 -43 -40 -80 -47 -83 -23 -9 -50 13 -62 50 -7 20 -15 35
-18 33 -135 -63 -172 -85 -169 -98 2 -8 57 -95 121 -193 114 -173 118 -177
139 -162 31 22 129 20 157 -3 25 -21 38 -80 39 -179 1 -35 5 -63 10 -63 5 0
58 42 118 93 158 133 294 247 959 806 120 102 247 207 281 235 l62 51 0 85 0
85 -530 585 c-292 322 -587 648 -656 725 -69 77 -167 185 -218 240 -50 55
-109 120 -131 145 -21 24 -117 130 -213 235 -223 245 -304 334 -431 475 -118
131 -435 482 -525 580 -137 150 -234 257 -266 295 -19 21 -42 47 -51 57 -17
17 -61 18 -783 18 -421 0 -765 -3 -765 -6z"/>
<path d="M3901 7687 c-25 -40 -122 -191 -216 -337 -95 -146 -200 -310 -235
-365 -35 -55 -104 -163 -155 -240 -50 -77 -113 -175 -140 -218 -28 -43 -90
-141 -140 -217 -49 -77 -127 -197 -172 -267 -45 -71 -168 -261 -272 -423 -104
-162 -271 -421 -370 -575 -99 -154 -270 -419 -380 -590 -244 -379 -281 -436
-417 -645 -59 -91 -115 -178 -124 -195 -10 -16 -81 -128 -159 -247 l-141 -218
0 -140 0 -140 198 0 c108 0 933 7 1832 15 899 7 1930 16 2290 20 360 3 883 8
1163 11 l507 7 0 86 0 86 -103 157 c-56 86 -141 217 -189 291 -82 129 -88 135
-134 151 -122 41 -172 115 -183 266 -6 79 -14 111 -25 99 -2 -2 -19 -35 -39
-74 -94 -187 -233 -305 -360 -305 -76 0 -116 18 -180 81 l-61 59 -39 -39 c-78
-77 -186 -115 -281 -97 -44 8 -100 56 -126 105 -58 114 -27 231 143 546 l76
140 -41 12 c-22 6 -58 28 -78 48 l-37 37 -75 -114 c-42 -62 -83 -125 -92 -140
-20 -34 -46 -36 -73 -5 -32 34 -43 62 -43 104 1 50 22 95 109 227 39 61 71
115 71 122 0 7 3 20 7 30 5 15 0 16 -46 12 -104 -10 -296 -130 -420 -263 -74
-79 -111 -151 -111 -214 0 -41 5 -49 53 -95 29 -28 92 -73 140 -101 146 -83
205 -122 218 -147 33 -61 2 -153 -78 -230 -134 -130 -403 -121 -610 20 -34 23
-67 42 -74 42 -6 0 -30 -16 -52 -36 -88 -80 -232 -122 -359 -104 -90 13 -157
48 -208 109 l-42 50 -47 -38 c-66 -54 -134 -94 -225 -133 -58 -24 -81 -39 -88
-58 -28 -75 -170 -347 -218 -420 -131 -195 -262 -259 -338 -162 -51 64 -65
102 -66 169 0 51 7 74 36 135 67 134 151 207 350 305 61 30 109 55 107 57 -2
2 -40 -1 -84 -6 -96 -11 -148 -4 -188 24 -106 75 -66 263 123 577 139 232 174
259 219 168 22 -45 23 -53 12 -101 -6 -29 -29 -81 -51 -117 -66 -108 -153
-271 -177 -329 -61 -147 3 -185 118 -70 67 67 150 190 284 425 114 201 143
240 176 240 37 0 62 -56 55 -125 -4 -45 -30 -104 -152 -344 -81 -159 -140
-285 -133 -280 65 40 155 109 207 159 48 47 62 67 62 90 0 42 40 108 72 119
22 8 32 6 48 -9 11 -10 21 -16 23 -14 1 2 18 24 38 49 73 94 158 237 170 284
21 84 129 171 185 149 36 -13 36 -42 3 -110 l-33 -67 17 -221 c14 -190 15
-230 3 -295 -7 -41 -13 -76 -12 -77 1 -2 22 17 46 42 l43 44 -26 35 c-15 19
-27 37 -27 39 0 9 55 27 89 29 24 2 36 9 44 25 13 28 55 42 68 22 5 -8 9 -25
9 -39 1 -43 200 -173 314 -205 97 -28 210 -7 222 41 10 38 -12 60 -128 130
-196 118 -293 202 -318 278 -30 91 3 230 79 337 124 173 381 342 542 356 83 8
121 -3 171 -47 64 -56 102 -144 95 -219 -3 -31 -8 -64 -12 -73 -7 -16 1 -18
86 -17 52 0 102 3 111 7 9 4 49 58 88 121 82 131 91 141 120 141 44 0 63 -100
35 -180 -20 -57 -21 -55 24 -69 62 -18 106 -89 65 -105 -9 -3 -48 -6 -88 -6
-43 0 -79 -5 -88 -12 -18 -15 -159 -251 -234 -393 -84 -160 -104 -265 -58
-316 42 -47 140 -2 226 105 39 49 48 68 54 115 21 178 175 401 328 476 l55 27
-49 76 c-27 42 -116 181 -199 307 -152 234 -176 271 -414 640 -75 116 -193
298 -262 405 -70 107 -241 373 -382 590 -140 217 -314 485 -385 595 -72 110
-146 225 -164 255 -57 93 -235 364 -247 377 -9 8 -23 -6 -56 -60z m-1015
-2755 c30 -16 90 -85 113 -130 47 -91 36 -164 -38 -267 -25 -35 -72 -105 -104
-154 -63 -99 -81 -109 -116 -65 -62 79 -44 163 70 329 45 66 79 132 79 155 0
18 -73 10 -132 -14 -88 -36 -226 -132 -308 -215 -132 -132 -167 -236 -106
-315 31 -41 75 -71 231 -160 159 -91 190 -138 150 -232 -69 -166 -297 -242
-515 -172 -109 34 -275 146 -335 225 -50 65 -31 87 70 85 67 -2 105 -19 215
-97 99 -69 214 -115 290 -115 58 0 119 27 126 56 12 46 14 44 -205 180 -228
142 -288 254 -230 426 29 87 80 162 170 250 198 193 453 296 575 230z"/>
<path d="M8727 4602 c-15 -16 -17 -47 -17 -225 0 -229 2 -237 65 -237 63 0 65
8 65 239 0 189 -2 209 -18 224 -25 22 -75 21 -95 -1z"/>
<path d="M7560 4423 c-55 -24 -153 -98 -201 -151 -54 -60 -113 -142 -103 -142
20 0 183 67 219 89 100 63 171 137 190 199 6 20 3 22 -32 21 -21 0 -54 -7 -73
-16z"/>
<path d="M6002 4270 c-103 -120 -160 -241 -177 -375 -26 -205 176 -115 304
136 l51 101 -49 44 c-29 26 -57 63 -68 89 -10 25 -20 45 -23 44 -3 0 -20 -18
-38 -39z"/>
<path d="M3872 4097 c-39 -60 -81 -120 -92 -135 -19 -26 -20 -30 -6 -70 18
-52 61 -109 87 -117 32 -10 60 5 75 40 18 44 27 209 17 310 l-8 79 -73 -107z"/>
<path d="M9475 3800 c3 -5 8 -10 11 -10 2 0 4 5 4 10 0 6 -5 10 -11 10 -5 0
-7 -4 -4 -10z"/>
<path d="M9245 3789 c-44 -4 -110 -13 -147 -19 -65 -11 -68 -13 -102 -63 -41
-61 -66 -141 -66 -209 l0 -48 -35 0 c-21 0 -35 5 -36 13 0 6 -8 30 -18 52
l-18 40 -42 -88 c-41 -85 -71 -191 -71 -252 0 -28 7 -23 113 86 109 113 181
174 319 272 37 26 84 68 105 95 45 56 60 68 127 104 l51 27 -50 -1 c-27 0 -86
-4 -130 -9z"/>
<path d="M9384 3735 c-31 -15 -73 -50 -108 -90 -31 -36 -87 -86 -124 -112
-119 -84 -205 -158 -328 -284 -174 -179 -158 -174 -151 -44 3 74 12 130 26
170 30 85 21 89 -21 9 -47 -91 -76 -182 -88 -278 -5 -44 -11 -80 -12 -81 -2
-1 -151 -134 -331 -294 -181 -161 -332 -289 -335 -286 -4 4 -7 52 -6 108 0
114 18 196 64 297 28 61 29 63 6 36 -32 -39 -80 -138 -100 -208 -11 -34 -17
-96 -18 -166 l-1 -111 -205 -183 c-113 -101 -226 -201 -252 -223 -26 -22 -76
-65 -111 -96 -107 -93 -303 -184 -442 -204 -55 -8 -64 -17 -41 -40 21 -20 77
-15 211 21 162 43 320 121 403 199 l35 33 138 5 c128 4 158 9 145 22 -3 3 -54
9 -114 13 l-109 7 40 30 c51 38 494 404 560 463 28 25 95 89 150 142 l100 97
105 7 c197 12 390 53 390 82 0 19 -10 18 -124 -11 -100 -25 -265 -35 -294 -16
-12 7 171 185 379 367 31 27 105 94 165 150 105 96 113 101 165 108 76 10 153
35 186 62 39 31 22 41 -36 20 -27 -9 -67 -16 -89 -14 l-39 3 76 65 c50 43 84
81 98 111 12 25 39 61 60 79 73 64 63 78 -23 35z"/>
<path d="M9447 3684 c-26 -25 -53 -60 -61 -77 -7 -18 -22 -41 -32 -52 -11 -11
-25 -28 -32 -37 -11 -14 -11 -16 7 -11 29 8 71 -22 71 -51 0 -12 -8 -30 -18
-39 -31 -29 -124 -66 -196 -78 -77 -14 -91 -22 -181 -108 -33 -32 -85 -79
-115 -106 -69 -61 -247 -223 -320 -292 l-55 -53 60 0 c33 0 109 12 168 27
l108 26 27 -20 c19 -15 27 -29 27 -52 l0 -31 56 0 c106 0 114 4 191 104 l71
91 -64 8 c-35 4 -77 11 -92 15 -26 7 -27 8 -12 30 15 20 24 22 118 23 l102 0
48 59 c26 32 47 61 47 64 0 3 -29 6 -64 6 -95 0 -103 18 -29 68 80 55 158 138
183 194 19 44 48 280 38 322 -2 11 -16 3 -51 -30z"/>
<path d="M8729 3606 c-122 -43 -216 -125 -274 -239 -18 -37 -37 -88 -41 -112
-12 -86 -68 -45 -105 77 l-21 69 -27 -17 c-201 -128 -371 -293 -406 -393 -9
-25 -21 -94 -28 -153 -11 -107 -12 -108 -38 -108 -28 0 -39 17 -59 90 l-11 42
-30 -28 c-50 -48 -80 -123 -86 -213 l-6 -81 -38 22 c-22 12 -39 25 -39 30 0 4
-6 8 -13 8 -17 0 -35 -58 -43 -138 l-7 -61 -49 20 c-27 10 -53 19 -59 19 -14
0 -57 -100 -74 -174 -26 -109 -12 -301 22 -301 7 0 120 96 252 214 133 118
246 218 252 222 7 4 13 46 15 105 6 168 60 328 145 426 l36 42 30 -22 31 -22
-30 -55 c-42 -79 -65 -148 -77 -241 -17 -124 -12 -126 81 -42 44 40 106 96
138 123 32 28 128 113 214 189 134 121 157 145 161 175 33 206 90 340 194 454
66 72 82 97 64 97 -5 0 -38 -11 -74 -24z"/>
<path d="M2953 3463 c-120 -119 -163 -186 -195 -307 -10 -38 -16 -71 -14 -73
6 -6 110 120 154 185 53 78 174 294 168 299 -2 3 -54 -44 -113 -104z"/>
<path d="M762 3257 c-21 -23 -22 -30 -22 -273 0 -249 0 -251 23 -272 33 -31
105 -31 135 1 21 23 22 30 22 273 0 249 0 251 -23 272 -33 31 -105 31 -135 -1z"/>
<path d="M7040 3258 c-19 -21 -20 -34 -20 -273 0 -239 1 -252 20 -273 30 -32
102 -31 135 3 l25 24 0 244 c0 232 -1 246 -21 271 -17 22 -28 26 -69 26 -38 0
-54 -5 -70 -22z"/>
<path d="M6369 2750 c-138 -71 -284 -280 -359 -512 -68 -215 -90 -366 -90
-629 0 -150 -2 -163 -25 -208 -32 -64 -77 -101 -121 -101 -47 0 -90 24 -98 54
-5 21 7 153 39 438 7 61 -16 88 -74 88 -23 0 -57 10 -82 25 -53 30 -131 33
-202 9 -83 -28 -229 -202 -309 -369 -38 -79 -49 -93 -107 -136 -141 -103 -239
-128 -326 -83 -59 31 -68 71 -61 264 7 168 5 161 79 245 l45 50 185 3 c163 4
188 6 202 22 15 16 24 74 14 85 -3 2 -69 5 -147 6 -78 2 -142 7 -142 11 0 4
16 29 37 55 63 83 105 183 112 271 13 166 -21 272 -104 319 -52 29 -80 29
-143 -3 -127 -63 -215 -223 -265 -481 l-22 -113 -116 0 c-100 0 -118 -3 -132
-18 -18 -20 -23 -67 -8 -76 5 -3 57 -13 116 -21 60 -8 109 -16 111 -17 1 -2
-2 -43 -8 -93 -10 -87 -5 -323 7 -375 5 -21 -2 -32 -52 -71 -106 -85 -159
-113 -214 -113 -60 0 -69 10 -69 76 0 61 52 281 89 372 42 105 47 146 21 179
-27 35 -81 45 -125 24 -67 -32 -98 -97 -141 -297 -35 -161 -51 -212 -78 -249
-30 -40 -206 -191 -223 -191 -27 0 -25 33 6 128 46 141 63 256 59 394 -4 143
-13 158 -103 166 -42 3 -63 11 -80 28 -109 109 -411 -89 -511 -336 -14 -34
-28 -92 -31 -128 -5 -64 -8 -69 -55 -114 -37 -35 -61 -49 -98 -57 -82 -18 -84
-16 -77 118 7 135 42 286 87 375 39 76 40 127 4 155 -38 30 -68 26 -113 -15
-116 -104 -193 -335 -195 -584 -1 -133 15 -179 75 -212 57 -32 119 -20 265 54
120 60 126 62 137 43 34 -62 107 -105 180 -105 35 0 134 33 180 60 38 23 55
14 37 -19 -5 -11 -61 -65 -123 -119 -264 -234 -400 -414 -414 -548 -14 -137
102 -221 269 -192 87 14 148 50 222 128 105 112 159 230 197 433 20 108 26
128 44 133 43 14 162 91 217 143 32 29 60 52 61 50 2 -2 11 -16 20 -31 57 -91
310 -30 491 118 30 24 56 44 59 44 2 0 9 -18 16 -40 15 -52 65 -108 116 -131
56 -26 164 -25 246 2 78 26 126 50 201 101 l57 38 17 -32 c76 -152 268 -175
435 -52 26 19 49 34 52 34 3 0 8 -11 11 -25 3 -13 23 -37 43 -52 30 -23 48
-28 107 -31 91 -5 166 22 234 83 l50 45 12 -30 c15 -37 71 -87 106 -96 50 -13
139 3 215 38 90 42 259 145 265 163 4 10 -56 146 -72 164 -3 3 -74 -52 -118
-92 -57 -51 -167 -81 -221 -61 -23 9 -45 58 -45 101 1 47 38 139 77 190 84
109 300 512 342 638 59 178 79 372 47 449 -34 80 -116 98 -217 46z m76 -222
c3 -13 -4 -59 -16 -103 -11 -44 -25 -97 -30 -117 -23 -94 -116 -276 -206 -404
-66 -94 -73 -97 -73 -33 0 180 99 493 191 603 59 70 124 96 134 54z m-1653
-63 c14 -32 -17 -168 -61 -261 -29 -63 -113 -164 -135 -164 -26 0 -13 157 20
258 22 65 61 143 86 170 30 31 75 30 90 -3z m744 -795 c-15 -201 -102 -366
-203 -386 -28 -6 -37 -2 -68 29 -30 30 -35 42 -35 79 0 134 106 299 232 362
50 25 54 26 66 9 10 -13 12 -38 8 -93z m-2101 43 c-31 -259 -99 -412 -191
-429 -101 -19 -128 106 -63 282 36 96 161 204 237 204 24 0 24 -1 17 -57z
m-131 -870 c-11 -63 -54 -175 -90 -234 -73 -121 -185 -190 -226 -139 -36 44
-16 97 75 196 55 60 230 214 243 214 3 0 2 -17 -2 -37z"/>
<path d="M8799 2705 c-51 -19 -206 -44 -319 -52 l-95 -6 -120 -112 c-113 -106
-371 -327 -552 -473 -45 -37 -79 -70 -77 -74 3 -5 29 -8 58 -8 39 0 57 -5 69
-18 20 -22 22 -55 4 -70 -7 -6 -76 -14 -153 -18 -135 -7 -140 -8 -177 -37 -20
-17 -34 -34 -30 -38 31 -29 236 -38 344 -15 66 14 176 60 214 89 20 15 20 15
-1 39 -27 29 -40 54 -47 95 -7 36 -5 37 76 48 143 19 388 145 486 248 20 22
21 28 9 46 -18 29 -5 37 82 55 113 23 222 82 302 162 67 67 74 84 37 84 -34 0
-59 19 -59 45 0 28 -1 29 -51 10z"/>
<path d="M1577 2654 c-214 -58 -440 -228 -509 -383 -33 -73 -3 -151 60 -151
32 0 91 34 112 64 162 232 492 307 767 174 75 -37 168 -129 207 -206 37 -73
59 -175 53 -247 -9 -117 -121 -345 -231 -471 -113 -129 -258 -198 -406 -192
-72 3 -74 4 -82 33 -11 39 7 250 37 431 30 179 67 324 111 436 37 95 44 162
18 172 -9 3 -37 6 -62 6 -60 0 -103 -26 -135 -82 -59 -101 -169 -486 -201
-701 -18 -123 -21 -264 -6 -334 13 -57 45 -84 142 -115 118 -38 361 -25 490
27 142 58 311 210 406 366 38 62 91 214 107 304 19 108 19 304 1 407 -34 186
-186 359 -385 438 -144 56 -342 66 -494 24z"/>
<path d="M4120 2360 c-58 -8 -86 -24 -110 -63 -53 -87 -2 -183 112 -211 80
-19 188 56 188 129 0 103 -74 160 -190 145z"/>
<path d="M2715 2311 c-49 -22 -73 -48 -85 -92 -21 -72 26 -145 109 -170 106
-32 225 59 207 157 -13 67 -90 124 -167 124 -13 0 -42 -9 -64 -19z"/>
</g>
</svg>
