<?xml version="1.0" standalone="no"?>
<!DOCTYPE svg PUBLIC "-//W3C//DTD SVG 20010904//EN"
 "http://www.w3.org/TR/2001/REC-SVG-20010904/DTD/svg10.dtd">
<svg version="1.0" xmlns="http://www.w3.org/2000/svg"
 width="840.000000pt" height="859.000000pt" viewBox="0 0 840.000000 859.000000"
 preserveAspectRatio="xMidYMid meet">

<g transform="translate(0.000000,859.000000) scale(0.100000,-0.100000)"
fill="#000000" stroke="none">
<path d="M1510 5511 c0 -11 7 -55 15 -98 9 -43 18 -96 21 -118 19 -126 16
-120 59 -120 l40 0 7 55 c12 82 16 97 33 104 9 3 14 2 11 -3 -3 -4 0 -41 7
-82 l13 -74 39 0 39 0 23 135 c12 74 26 154 29 178 l7 42 -36 0 c-39 0 -40 -1
-53 -112 -3 -32 -10 -58 -15 -58 -5 0 -9 1 -10 3 0 1 -6 38 -12 82 l-12 80
-35 0 -35 0 -11 -78 c-15 -108 -30 -118 -39 -25 -9 105 -11 108 -51 108 -27 0
-34 -4 -34 -19z"/>
<path d="M1880 5350 l0 -180 95 0 95 0 0 34 0 35 -52 3 c-51 3 -53 4 -56 35
-3 31 -2 32 42 38 44 7 46 9 46 41 0 33 -2 34 -37 34 -50 0 -63 9 -52 38 7 18
16 22 47 22 45 0 65 18 60 52 -3 22 -8 23 -95 26 l-93 3 0 -181z"/>
<path d="M2108 5524 c-5 -4 -8 -85 -8 -181 l0 -173 84 0 c111 0 129 13 129 93
0 33 -6 66 -15 79 -13 19 -13 25 0 51 17 34 10 93 -13 116 -17 17 -163 29
-177 15z m112 -68 c18 -23 9 -61 -15 -61 -14 0 -20 7 -21 25 -3 47 13 63 36
36z m10 -151 c17 -21 -1 -70 -26 -70 -19 0 -20 3 -15 68 1 21 24 22 41 2z"/>
<path d="M2379 5517 c-28 -21 -41 -57 -35 -92 5 -24 23 -49 66 -87 38 -33 60
-61 60 -74 0 -35 -27 -37 -50 -4 -15 22 -30 30 -51 30 -25 0 -29 -4 -29 -29 0
-40 37 -80 80 -89 49 -10 74 -5 104 23 21 19 26 33 26 72 0 46 -3 50 -65 108
-36 34 -65 66 -65 72 0 22 29 21 55 -3 29 -27 63 -31 71 -9 8 21 -15 74 -37
85 -25 14 -111 12 -130 -3z"/>
<path d="M2580 5350 l0 -181 41 3 41 3 0 175 0 175 -41 3 -41 3 0 -181z"/>
<path d="M2690 5495 c0 -30 3 -35 24 -35 14 0 28 -5 32 -12 4 -6 8 -70 8 -142
l1 -131 40 0 40 0 5 140 5 140 28 3 c24 3 27 8 27 38 l0 34 -105 0 -105 0 0
-35z"/>
<path d="M2930 5350 l0 -180 95 0 95 0 0 34 0 35 -52 3 c-51 3 -53 4 -56 35
-3 31 -2 32 42 38 44 7 46 9 46 41 0 33 -2 34 -37 34 -50 0 -63 9 -52 38 7 18
16 22 47 22 45 0 65 18 60 52 -3 22 -8 23 -95 26 l-93 3 0 -181z"/>
<path d="M5717 5377 c-10 -67 -8 -255 3 -262 15 -9 71 5 64 16 -3 6 -11 5 -20
-2 -8 -6 -17 -9 -20 -6 -3 3 -6 67 -6 142 -1 130 -10 181 -21 112z"/>
<path d="M7006 5241 c-23 -25 -33 -73 -41 -196 -3 -55 -8 -115 -11 -132 -10
-64 13 -31 70 100 65 151 77 205 51 230 -22 22 -48 21 -69 -2z"/>
<path d="M5645 5220 c-10 -16 6 -102 27 -142 11 -20 29 -39 42 -42 26 -6 46
-44 46 -84 0 -16 4 -32 9 -37 5 -6 16 -38 25 -72 8 -34 23 -79 32 -100 l18
-38 9 119 c10 143 2 190 -33 194 -50 5 -70 13 -70 25 0 6 -18 20 -40 29 l-40
17 0 70 c0 65 -9 87 -25 61z"/>
<path d="M6332 5040 c-58 -9 -67 -13 -58 -29 5 -7 15 -7 32 -1 43 17 79 11
137 -19 53 -28 55 -28 46 -7 -12 25 -69 67 -90 65 -8 -1 -38 -5 -67 -9z"/>
<path d="M6547 4984 c-3 -20 0 -68 8 -108 8 -39 16 -84 17 -101 2 -20 9 -2 22
58 l19 88 -23 42 c-33 60 -37 62 -43 21z"/>
<path d="M6118 5005 c-4 -4 -28 -9 -54 -11 -68 -5 -111 -22 -134 -51 -27 -35
-25 -51 3 -25 20 19 35 22 103 22 43 0 84 4 90 8 12 8 26 55 14 47 -5 -3 -10
0 -12 6 -2 5 -6 7 -10 4z"/>
<path d="M1097 4993 c-11 -11 -8 -268 4 -302 14 -40 35 -51 96 -51 90 1 103
29 103 221 l0 139 -40 0 -39 0 -3 -142 c-3 -135 -4 -143 -23 -143 -19 0 -20 8
-23 143 l-3 142 -33 0 c-18 0 -36 -3 -39 -7z"/>
<path d="M1337 4993 c-4 -3 -7 -84 -7 -180 l0 -173 35 0 c29 0 36 4 41 25 3
14 3 40 0 59 -8 44 1 66 28 66 15 0 17 -3 8 -9 -11 -6 -10 -20 4 -74 l16 -67
38 0 c21 0 40 4 42 10 2 5 2 87 0 180 l-3 171 -32 -3 -32 -3 0 -63 c0 -74 -19
-84 -35 -19 -20 77 -27 87 -63 87 -19 0 -37 -3 -40 -7z"/>
<path d="M1579 4995 c-3 -2 -4 -80 -2 -172 2 -92 3 -171 3 -175 0 -14 144 -8
162 6 63 47 65 270 3 323 -22 19 -38 23 -94 23 -37 0 -70 -2 -72 -5z m115 -73
c3 -5 6 -53 7 -107 1 -71 -2 -99 -12 -105 -25 -16 -29 1 -29 111 0 88 3 109
14 109 8 0 17 -4 20 -8z"/>
<path d="M1827 4994 c-4 -4 -7 -85 -7 -181 l0 -173 95 0 95 0 0 34 0 35 -52 3
c-51 3 -53 4 -56 35 -3 31 -2 32 43 39 44 6 46 8 43 38 -3 28 -7 31 -45 37
-51 6 -53 8 -42 37 7 18 16 22 47 22 45 0 65 18 60 52 -3 22 -8 23 -88 26 -47
1 -89 0 -93 -4z"/>
<path d="M2050 4998 c0 -2 -2 -82 -3 -178 l-2 -175 43 -3 42 -3 0 70 c0 38 4
72 9 75 17 11 36 -28 41 -83 l5 -56 38 -3 37 -3 -6 73 c-3 40 -10 78 -16 85
-7 9 -5 23 7 49 20 43 13 106 -16 135 -15 15 -34 19 -99 19 -44 0 -80 -1 -80
-2z m123 -80 c15 -23 0 -68 -23 -68 -16 0 -20 7 -20 38 0 54 20 68 43 30z"/>
<path d="M2440 4973 c-35 -33 -43 -80 -33 -208 8 -101 27 -125 103 -125 74 0
106 39 98 121 -3 32 -6 34 -38 34 -33 0 -35 -2 -40 -40 -4 -31 -9 -40 -24 -40
-16 0 -19 10 -23 75 -5 99 3 142 25 138 11 -2 19 -16 22 -38 5 -32 8 -35 44
-38 l39 -3 -5 52 c-4 41 -11 58 -32 76 -39 33 -97 31 -136 -4z"/>
<path d="M2687 4989 c-35 -20 -47 -64 -47 -171 0 -148 26 -185 125 -176 70 6
95 77 80 233 -9 97 -31 125 -97 125 -24 0 -51 -5 -61 -11z m81 -162 c1 -45 -1
-90 -4 -99 -7 -22 -30 -23 -38 -2 -11 29 -7 179 6 192 23 23 35 -6 36 -91z"/>
<path d="M2878 4837 c-2 -90 -2 -172 0 -181 2 -11 14 -16 37 -16 l34 0 3 72
c3 64 5 73 23 75 11 2 15 0 9 -3 -8 -3 -6 -24 6 -72 l17 -67 42 -3 41 -3 0
180 0 181 -35 0 -35 0 0 -65 c0 -61 -9 -80 -26 -53 -4 7 -9 22 -10 35 -6 51
-27 78 -66 81 l-37 3 -3 -164z"/>
<path d="M3148 4970 c-26 -27 -30 -36 -25 -68 5 -29 20 -50 67 -94 59 -56 75
-90 45 -102 -9 -3 -23 6 -37 25 -16 22 -29 29 -48 27 -29 -4 -37 -28 -20 -67
14 -35 47 -51 104 -51 63 0 96 33 96 96 0 44 -3 49 -66 109 -46 43 -65 68 -61
79 9 23 26 20 53 -9 37 -40 80 -28 68 19 -10 40 -49 66 -101 66 -36 0 -50 -6
-75 -30z"/>
<path d="M3354 4986 c-11 -29 1 -51 31 -56 l30 -5 3 -143 3 -142 39 0 39 0 3
142 3 143 30 5 c25 4 30 10 30 35 l0 30 -103 3 c-83 2 -103 0 -108 -12z"/>
<path d="M3597 4993 c-2 -5 -4 -84 -3 -178 l1 -170 43 -3 42 -3 0 65 c0 35 3
72 6 80 10 27 33 -12 34 -56 0 -65 15 -88 55 -88 l36 0 -7 68 c-4 37 -11 75
-16 85 -7 13 -5 29 6 52 20 41 12 109 -16 137 -14 14 -34 18 -97 18 -44 0 -82
-3 -84 -7z m123 -74 c16 -29 4 -69 -19 -69 -14 0 -20 9 -23 35 -6 52 21 74 42
34z"/>
<path d="M3837 4993 c-10 -10 -8 -242 3 -288 11 -49 32 -65 86 -65 58 0 91 17
104 53 5 16 10 93 10 169 l0 139 -37 -3 -38 -3 -2 -125 c-4 -158 -7 -174 -33
-160 -18 10 -20 22 -20 150 l0 140 -33 0 c-19 0 -37 -3 -40 -7z"/>
<path d="M4105 4976 l-30 -24 0 -137 c0 -133 1 -137 24 -156 19 -16 37 -19 79
-17 69 4 93 30 95 104 l2 49 -37 3 c-21 2 -38 0 -39 -5 -1 -4 -2 -23 -4 -41
-3 -39 -9 -46 -30 -39 -12 5 -15 25 -15 106 0 59 4 102 10 106 18 11 40 -15
40 -46 0 -26 3 -29 35 -29 23 0 38 6 42 16 8 22 -13 86 -37 112 -29 31 -95 30
-135 -2z"/>
<path d="M4300 4965 c0 -30 3 -35 23 -35 41 0 44 -10 45 -130 1 -63 1 -125 2
-138 0 -21 4 -23 38 -20 l37 3 5 140 5 140 28 3 c24 3 27 8 27 38 l0 34 -105
0 -105 0 0 -35z"/>
<path d="M4540 4820 l0 -180 40 0 40 0 0 180 0 180 -40 0 -40 0 0 -180z"/>
<path d="M4697 4989 c-32 -19 -47 -72 -47 -169 0 -143 27 -184 117 -178 64 4
86 35 91 128 10 166 -18 230 -100 230 -24 0 -51 -5 -61 -11z m83 -164 c0 -91
-5 -115 -25 -115 -19 0 -25 24 -25 106 0 85 13 122 36 103 10 -8 14 -35 14
-94z"/>
<path d="M4890 4820 l0 -180 35 0 34 0 3 72 c3 64 5 73 23 75 11 2 15 0 8 -3
-8 -4 -6 -23 8 -72 10 -37 19 -68 19 -69 0 -2 18 -3 40 -3 l40 0 0 180 0 180
-36 0 -36 0 4 -65 c2 -46 -1 -65 -9 -65 -14 0 -27 18 -28 40 -1 8 -7 32 -14
53 -12 34 -15 37 -52 37 l-39 0 0 -180z"/>
<path d="M6343 4910 c-13 -5 -23 -12 -23 -14 0 -3 7 -3 16 1 12 4 14 0 8 -21
-4 -17 0 -35 11 -52 14 -21 21 -24 48 -18 45 9 51 25 20 50 -27 21 -25 44 3
44 8 0 12 5 9 10 -8 12 -62 12 -92 0z"/>
<path d="M5996 4884 c-16 -16 -21 -50 -10 -78 8 -21 84 -23 84 -2 0 8 -7 21
-15 30 -21 20 -15 38 15 53 24 12 23 12 -17 13 -25 0 -48 -6 -57 -16z"/>
<path d="M6917 4833 c-14 -13 -7 -43 12 -53 15 -7 23 -6 35 6 19 19 20 26 4
42 -13 13 -41 16 -51 5z"/>
<path d="M665 4746 c-11 -8 -20 -24 -20 -37 0 -19 -7 -25 -42 -32 -52 -10
-133 -78 -126 -106 3 -10 20 -34 39 -52 32 -31 34 -37 34 -95 0 -57 2 -63 23
-67 20 -4 21 -4 1 -6 -17 -1 -23 -12 -34 -58 -8 -32 -12 -68 -11 -79 1 -16 -6
-25 -26 -33 -63 -25 44 -2 232 48 105 28 200 51 213 51 17 0 22 6 22 27 0 35
-47 103 -72 103 -10 0 -32 7 -48 15 -17 9 -30 11 -30 5 0 -5 -11 -10 -23 -10
-39 0 -78 60 -57 85 8 9 8 15 0 20 -5 3 -10 21 -10 38 0 18 -7 43 -16 56 -16
22 -16 24 0 33 9 5 16 16 16 23 0 8 5 15 10 15 14 0 12 21 -3 41 -18 24 -51
31 -72 15z m-45 -90 c0 -8 -51 -13 -56 -5 -3 5 9 9 25 9 17 0 31 -2 31 -4z
m-60 -76 c0 -5 -5 -10 -11 -10 -5 0 -7 5 -4 10 3 6 8 10 11 10 2 0 4 -4 4 -10z
m118 -99 c-15 -5 -21 7 -13 26 7 17 8 17 15 -2 4 -11 3 -22 -2 -24z m112 -71
c5 0 12 -9 15 -20 4 -13 15 -20 31 -20 26 0 31 -20 15 -64 -15 -37 -46 -24
-61 27 -6 23 -19 53 -27 66 -14 22 -14 24 2 18 9 -4 20 -7 25 -7z m-108 -27
c32 -34 58 -85 58 -112 0 -16 -12 -24 -52 -36 -89 -26 -113 -15 -85 42 8 15
17 48 21 72 11 71 19 76 58 34z"/>
<path d="M6363 4553 c-7 -2 -13 -11 -13 -18 0 -40 -200 -65 -246 -30 -10 8
-25 15 -33 15 -18 0 70 -67 106 -81 28 -10 93 -4 128 13 23 12 50 42 71 81 14
26 12 31 -13 20z"/>
<path d="M6916 4495 c-11 -8 -29 -12 -43 -9 -21 6 -23 3 -23 -27 1 -29 2 -32
13 -18 7 9 27 23 45 33 17 9 32 21 32 26 0 13 -1 12 -24 -5z"/>
<path d="M7707 4122 l-169 -225 39 6 c21 3 91 11 156 18 l118 12 35 49 36 49
-17 142 c-10 78 -21 149 -24 158 -4 11 -56 -51 -174 -209z"/>
<path d="M6350 4331 c0 -5 6 -14 14 -20 12 -10 13 -8 9 8 -5 21 -23 30 -23 12z"/>
<path d="M7576 4331 c-4 -5 3 -7 14 -4 23 6 26 13 6 13 -8 0 -17 -4 -20 -9z"/>
<path d="M7558 4298 c9 -9 15 -9 24 0 9 9 7 12 -12 12 -19 0 -21 -3 -12 -12z"/>
<path d="M7300 4289 c0 -11 93 -20 103 -10 5 5 -13 10 -47 13 -31 1 -56 0 -56
-3z"/>
<path d="M6007 4265 c-32 -7 -60 -15 -62 -17 -9 -9 -8 -155 2 -173 26 -49 25
-93 -3 -141 l-27 -46 27 -56 c28 -56 28 -56 42 -32 7 14 13 20 14 14 0 -6 29
-29 64 -51 l64 -41 -14 -43 c-9 -23 -28 -58 -45 -76 -35 -41 -36 -48 -5 -121
51 -122 95 -264 106 -344 24 -170 20 -159 70 -173 25 -7 54 -16 66 -20 20 -6
20 -6 8 102 -17 144 -31 212 -60 297 -13 39 -24 73 -24 75 0 13 67 -62 100
-112 54 -80 124 -295 116 -354 -3 -26 -2 -43 5 -43 6 0 6 -6 -1 -19 -5 -11
-10 -33 -10 -50 0 -26 4 -31 34 -36 41 -8 108 2 117 17 4 6 1 17 -6 25 -8 7
-12 20 -9 27 6 15 -24 26 -68 26 -25 0 -28 4 -28 34 0 32 2 34 46 41 45 6 45
7 39 38 -4 18 -25 58 -46 91 -40 60 -48 93 -27 114 9 9 8 12 -5 12 -9 0 -17
-6 -17 -14 0 -8 -6 -16 -14 -19 -16 -6 -31 64 -16 73 6 4 0 27 -14 56 -13 27
-38 79 -56 117 -18 38 -38 67 -46 67 -8 0 -26 11 -40 25 -14 14 -33 25 -42 26
-31 2 32 17 75 18 23 1 45 6 48 11 4 6 7 46 7 89 0 42 3 82 6 87 4 6 72 17
151 26 97 10 146 20 152 29 6 10 3 16 -9 20 -27 8 -94 38 -124 54 -30 17 -82
20 -73 5 3 -6 -4 -10 -17 -10 -18 0 -20 -2 -8 -10 13 -8 13 -10 -2 -10 -10 0
-22 -9 -28 -21 -7 -11 -14 -18 -17 -15 -7 7 45 117 67 141 27 28 52 104 43
129 -10 29 -4 56 19 88 21 30 18 43 -10 50 -15 4 -18 1 -14 -17 5 -27 -18 -42
-63 -41 -22 1 -31 6 -33 22 -2 11 4 27 13 34 14 11 13 14 -7 24 -28 14 -42 3
-88 -71 -17 -29 -55 -73 -83 -98 l-51 -45 -25 23 -25 22 16 -25 c8 -14 22 -26
30 -28 8 -1 38 20 68 48 29 27 54 50 55 50 2 0 5 -28 6 -53 0 -23 -20 -49 -32
-41 -5 3 -9 0 -9 -6 0 -7 -10 -20 -22 -30 -18 -14 -26 -16 -37 -7 -12 9 -13 9
-7 0 4 -8 1 -13 -9 -13 -9 0 -14 4 -11 8 3 4 -8 7 -24 6 -27 -2 -46 17 -41 39
1 5 -3 6 -8 3 -11 -7 -42 34 -35 46 3 4 1 8 -4 8 -5 0 -12 9 -15 20 -3 11 -1
18 3 15 5 -3 10 1 13 7 3 10 9 10 25 1 19 -11 19 -11 6 34 -8 26 -14 59 -14
75 0 32 -3 32 -93 13z m326 -622 c-7 -2 -13 -13 -13 -23 0 -20 -19 -30 -60
-30 -55 0 -90 12 -90 31 0 10 -9 19 -22 22 -13 2 27 5 87 5 61 0 104 -2 98 -5z"/>
<path d="M7003 4273 c-7 -3 -13 -12 -13 -21 0 -15 2 -15 17 1 18 18 16 27 -4
20z"/>
<path d="M6171 4220 c-7 -23 -7 -41 2 -68 14 -43 22 -45 60 -15 26 20 27 24
17 61 -7 28 -17 42 -33 46 -33 9 -34 8 -46 -24z"/>
<path d="M7250 4216 c0 -7 -13 -22 -30 -34 -28 -21 -65 -73 -41 -58 6 4 11 2
11 -3 0 -6 -6 -11 -13 -11 -8 0 -24 -11 -37 -25 l-23 -25 29 0 c16 1 40 7 54
15 28 16 54 20 30 5 -12 -7 -12 -12 -2 -22 8 -8 12 -9 12 0 0 21 84 50 136 46
l49 -4 -40 13 c-40 13 -39 26 3 22 12 -1 22 2 22 6 0 4 12 7 28 5 27 -3 52 9
52 25 0 5 -10 9 -22 9 -19 0 -20 2 -8 10 11 7 1 9 -32 6 -37 -3 -48 -1 -48 10
0 8 -3 14 -7 15 -77 7 -123 5 -123 -5z"/>
<path d="M5731 4139 c-49 -6 -71 -14 -92 -35 -21 -20 -31 -24 -41 -16 -19 15
-100 -13 -117 -40 -12 -20 -11 -21 16 -15 33 7 47 -1 49 -25 1 -13 -10 -21
-40 -29 -22 -6 -49 -15 -58 -20 -10 -5 -23 -9 -30 -9 -11 0 -238 -288 -238
-301 0 -11 303 30 315 42 16 18 329 430 339 447 8 14 -5 14 -103 1z"/>
<path d="M6638 4123 c-24 -6 -23 -20 2 -33 26 -14 50 -1 25 13 -14 8 -15 11
-4 18 15 9 6 10 -23 2z"/>
<path d="M7435 4120 c-3 -5 -2 -10 4 -10 5 0 13 5 16 10 3 6 2 10 -4 10 -5 0
-13 -4 -16 -10z"/>
<path d="M7362 4073 c-6 -3 -10 -9 -7 -14 3 -4 -7 -11 -22 -15 -15 -3 -34 -7
-41 -10 -7 -2 -10 1 -7 7 4 6 -3 7 -22 2 -15 -4 -41 -7 -58 -6 -80 5 -98 4
-108 -6 -8 -8 1 -11 34 -12 38 0 41 -2 21 -10 -13 -5 -35 -7 -48 -5 -16 3 -27
0 -31 -10 -8 -22 2 -27 29 -14 23 12 23 12 3 -7 -11 -10 -34 -25 -52 -32 -42
-17 -64 -41 -31 -35 16 4 12 -1 -13 -15 -19 -11 -41 -27 -48 -35 -12 -14 -9
-16 25 -15 54 1 145 34 121 44 -10 4 -27 1 -41 -8 -13 -9 -33 -13 -46 -10 -22
6 -21 7 11 24 19 10 46 18 60 19 15 0 29 7 33 15 3 8 12 15 21 15 8 0 15 6 15
14 0 19 7 23 53 31 33 7 37 5 37 -14 0 -12 -8 -24 -17 -27 -10 -3 -26 -10 -36
-15 -9 -5 -30 -7 -45 -3 -21 4 -24 3 -12 -5 10 -7 11 -11 3 -11 -20 0 -15 -24
7 -37 12 -8 36 -10 66 -6 42 5 51 12 90 62 100 129 106 138 87 143 -10 3 -24
3 -31 1z"/>
<path d="M7305 4060 c-3 -6 1 -7 9 -4 18 7 21 14 7 14 -6 0 -13 -4 -16 -10z"/>
<path d="M5188 4038 c9 -9 15 -9 24 0 9 9 7 12 -12 12 -19 0 -21 -3 -12 -12z"/>
<path d="M4935 4033 c15 -15 93 -25 100 -13 4 6 -10 10 -34 10 -21 0 -48 3
-58 6 -12 5 -15 4 -8 -3z"/>
<path d="M6727 4024 c-15 -15 -6 -21 35 -22 26 -1 38 2 33 7 -14 14 -59 23
-68 15z"/>
<path d="M4612 4012 c-6 -2 -10 -8 -6 -13 3 -5 0 -9 -5 -9 -6 0 -11 5 -11 10
0 15 -27 12 -44 -5 -8 -8 -25 -15 -37 -15 -12 0 -20 -3 -16 -6 10 -11 -28 -39
-67 -49 -26 -7 -40 -16 -42 -28 -1 -11 3 -17 9 -14 7 2 36 10 65 18 43 11 57
11 73 0 16 -9 24 -9 35 0 15 12 84 104 84 111 0 6 -21 6 -38 0z"/>
<path d="M5475 4010 c11 -5 27 -9 35 -9 13 -1 13 0 0 9 -8 5 -24 9 -35 9 l-20
0 20 -9z"/>
<path d="M5467 3989 c7 -7 15 -10 18 -7 3 3 -2 9 -12 12 -14 6 -15 5 -6 -5z"/>
<path d="M4880 3963 c0 -8 -14 -26 -30 -40 -31 -25 -63 -72 -41 -59 6 4 11 2
11 -3 0 -6 -6 -11 -13 -11 -8 0 -24 -11 -37 -25 l-23 -25 29 0 c16 0 40 7 52
16 14 10 32 14 48 10 14 -4 37 0 54 9 19 10 43 13 67 9 41 -6 93 9 93 26 0 7
-9 5 -22 -4 -25 -18 -63 -22 -53 -6 3 6 -1 7 -9 4 -9 -3 -16 -2 -16 4 0 6 28
14 62 19 34 4 63 13 65 19 4 11 -41 27 -79 29 -9 0 -25 9 -35 20 -23 25 -123
32 -123 8z"/>
<path d="M3908 3940 c-81 -8 -152 -20 -157 -25 -24 -26 -350 -459 -347 -462 1
-2 71 5 154 14 l152 16 167 220 c171 224 187 247 181 251 -1 1 -69 -5 -150
-14z"/>
<path d="M3297 3875 c-59 -8 -113 -15 -121 -17 -15 -3 -368 -460 -361 -466 4
-5 216 15 272 25 28 4 54 34 201 227 93 121 172 227 176 234 9 15 -19 14 -167
-3z"/>
<path d="M4243 3847 c-30 -33 -35 -55 -15 -66 13 -7 9 -11 -21 -16 -58 -11
-87 -78 -39 -90 31 -8 39 0 21 21 -13 16 -11 17 26 10 22 -4 45 -12 50 -17 7
-7 3 -8 -10 -3 -17 7 -18 5 -8 -7 11 -13 8 -16 -20 -16 -57 -1 -127 -15 -121
-24 3 -5 -5 -9 -18 -10 -22 0 -22 -1 -3 -9 l20 -9 -20 -1 c-22 -2 -92 -76 -81
-87 5 -6 203 11 271 23 42 8 121 114 84 114 -5 0 -8 4 -5 9 3 5 -10 12 -29 15
-19 4 -47 18 -63 31 -22 18 -32 21 -40 13 -7 -7 -15 -8 -19 -4 -11 11 15 24
74 37 29 7 50 16 47 20 -3 5 7 15 22 21 18 8 29 9 31 3 2 -6 28 -10 59 -8 66
3 86 13 27 13 -62 0 -163 12 -159 19 2 3 -6 14 -19 23 -21 16 -23 16 -42 -5z"/>
<path d="M2718 3811 c-99 -12 -141 -21 -155 -33 -11 -10 -25 -18 -31 -18 -7 0
-12 -4 -12 -9 0 -6 -12 -6 -30 -1 -25 7 -32 5 -40 -10 -10 -18 -54 -31 -165
-46 l-50 -7 28 37 c26 33 26 36 8 36 -21 0 -271 -26 -340 -36 l-44 -6 6 -74
c4 -40 23 -128 42 -194 19 -65 35 -122 35 -125 0 -3 33 -5 73 -5 57 0 74 3 74
14 0 12 -14 13 -70 9 -57 -5 -69 -4 -65 8 3 9 18 14 41 13 21 -1 37 3 37 7 0
5 -11 9 -25 9 -14 0 -25 4 -25 10 0 5 10 10 23 9 27 0 123 23 133 33 4 4 13 3
19 -2 9 -7 27 -7 54 -1 23 5 43 6 46 2 7 -12 -25 -51 -42 -51 -9 0 -13 -3 -10
-6 7 -7 -26 -36 -53 -47 -8 -4 23 -4 70 -1 47 3 89 9 93 14 5 4 17 43 28 86
11 44 24 96 30 116 l9 36 70 -1 69 -2 17 -67 c10 -37 21 -65 25 -62 4 2 55 67
114 144 58 77 109 139 113 138 4 -1 31 10 60 26 46 23 52 29 41 42 -10 13 -10
17 2 25 20 12 -38 10 -203 -10z m172 -21 c0 -22 -1 -23 -24 -14 -13 5 -14 9
-5 20 16 20 29 17 29 -6z m-548 -279 c4 -3 4 -12 -1 -19 -6 -9 -46 -14 -140
-17 -111 -3 -131 -2 -121 10 8 10 27 12 65 9 30 -2 56 -1 59 4 2 4 21 7 40 7
24 -1 36 3 36 12 0 10 8 12 28 7 15 -4 30 -9 34 -13z"/>
<path d="M4998 3816 c-10 -7 -15 -16 -12 -19 11 -11 -39 -16 -143 -14 -70 1
-106 -2 -115 -11 -9 -9 -3 -12 33 -13 38 0 41 -2 21 -10 -13 -5 -35 -7 -48 -5
-17 3 -27 -1 -35 -16 -12 -22 -8 -22 46 -3 11 4 2 -4 -20 -19 -22 -14 -45 -26
-51 -26 -6 0 -19 -8 -28 -19 -15 -17 -15 -19 -1 -25 24 -9 32 -7 16 3 -10 7
-8 9 10 8 13 -1 40 2 61 6 33 7 36 6 31 -13 -4 -14 0 -20 10 -20 8 0 17 -4 19
-10 2 -5 23 -6 53 -2 49 7 51 9 122 102 52 67 68 96 58 98 -9 2 -13 8 -10 13
8 12 3 11 -17 -5z m-112 -97 c15 -25 -82 -68 -113 -50 -16 9 -16 10 -2 11 9 0
19 9 22 19 6 26 79 41 93 20z"/>
<path d="M4850 3811 c0 -6 5 -13 12 -17 6 -4 8 -3 4 4 -3 5 0 13 6 15 8 3 6 6
-4 6 -10 1 -18 -3 -18 -8z"/>
<path d="M4440 3776 c-22 -8 -29 -15 -20 -18 22 -7 48 2 54 18 3 8 4 14 3 13
-1 0 -18 -6 -37 -13z"/>
<path d="M770 3740 c0 -5 18 -21 40 -35 23 -14 43 -32 47 -40 8 -23 23 -17 23
9 0 41 -9 53 -35 48 -14 -2 -36 3 -50 12 -14 9 -25 12 -25 6z"/>
<path d="M4275 3740 c3 -5 8 -10 11 -10 2 0 4 5 4 10 0 6 -5 10 -11 10 -5 0
-7 -4 -4 -10z"/>
<path d="M5776 3725 c-4 -10 1 -15 16 -15 17 0 18 2 8 15 -7 8 -14 15 -15 15
-2 0 -5 -7 -9 -15z"/>
<path d="M2295 3720 c-4 -6 5 -10 19 -10 14 0 26 5 26 10 0 6 -9 10 -19 10
-11 0 -23 -4 -26 -10z"/>
<path d="M4313 3713 c9 -2 23 -2 30 0 6 3 -1 5 -18 5 -16 0 -22 -2 -12 -5z"/>
<path d="M4612 3614 c-36 -25 -27 -37 23 -29 64 9 121 30 107 39 -15 9 -63 -4
-56 -15 6 -10 -2 -11 -33 -3 -13 4 -20 10 -17 15 8 13 2 11 -24 -7z"/>
<path d="M673 3603 c9 -2 25 -2 35 0 9 3 1 5 -18 5 -19 0 -27 -2 -17 -5z"/>
<path d="M1823 3603 c9 -2 25 -2 35 0 9 3 1 5 -18 5 -19 0 -27 -2 -17 -5z"/>
<path d="M5283 3603 c9 -2 23 -2 30 0 6 3 -1 5 -18 5 -16 0 -22 -2 -12 -5z"/>
<path d="M7213 3603 c9 -2 25 -2 35 0 9 3 1 5 -18 5 -19 0 -27 -2 -17 -5z"/>
<path d="M7973 3603 c9 -2 23 -2 30 0 6 3 -1 5 -18 5 -16 0 -22 -2 -12 -5z"/>
<path d="M6290 3544 c0 -6 65 -34 80 -34 20 0 10 28 -12 34 -29 7 -68 8 -68 0z"/>
<path d="M6156 2915 c-8 -21 -67 -45 -111 -45 -24 0 -35 -5 -35 -15 0 -28 39
-37 129 -31 47 3 107 5 134 5 69 0 61 21 -25 64 -83 42 -84 42 -92 22z"/>
</g>
</svg>
